<svg width="40" height="41" viewBox="0 0 40 41" fill="none" xmlns="http://www.w3.org/2000/svg">
<g clipPath="url(#clip0_10420_37)">
<path d="M39.9999 24.6114V17.164H36.4563C36.0359 15.2421 35.2551 13.5003 34.2942 11.9387L36.8167 9.41622L31.5314 4.13094L29.0089 6.65346C27.4473 5.63244 25.6455 4.91172 23.7836 4.4913V0.887695H20.7806H20.0599H14.5344C13.8137 0.887695 13.2131 1.4883 13.2131 2.20902C13.2131 2.92974 13.8137 3.53034 14.5344 3.53034H20.0599H20.12C20.8407 3.53034 21.4413 4.13094 21.4413 4.85166C21.4413 5.57238 20.8407 6.17298 20.12 6.17298H20.0599H13.8137H6.84671C6.12599 6.17298 5.52539 6.77358 5.52539 7.4943C5.52539 8.21502 6.12599 8.81562 6.84671 8.81562H13.8137H19.9999H20.0599C20.0599 8.81562 20.0599 8.81562 20.12 8.81562C26.7266 8.87568 32.0119 14.221 32.0119 20.8276C32.0119 27.4342 26.6665 32.8397 19.9999 32.8397H6.84671C6.12599 32.8397 5.52539 33.4403 5.52539 34.161C5.52539 34.8817 6.12599 35.4823 6.84671 35.4823H19.9999V38.1249H14.4743C13.7536 38.1249 13.153 38.7255 13.153 39.4463C13.153 40.167 13.7536 40.7676 14.4743 40.7676H19.9999H20.7206H23.7236V37.224C25.6455 36.8036 27.3873 36.0228 28.9488 35.0619L31.4713 37.5844L36.7566 32.2991L34.2341 29.8366C35.2551 28.2751 35.9758 26.4733 36.3963 24.6114H39.9999Z" fill="#4F70E6"/>
<path d="M20 30.1972C25.1652 30.1972 29.3093 25.993 29.3093 20.8879C29.3093 15.7228 25.1051 11.5786 20 11.5786H13.8138H12.4925H3.66366C2.94294 11.5786 2.34234 12.1792 2.34234 12.8999C2.34234 13.6207 2.94294 14.2213 3.66366 14.2213H10.03H13.4535H13.8138H20H20.0601C20.7808 14.2213 21.3814 14.8219 21.3814 15.5426C21.3814 16.2633 20.7808 16.8639 20.0601 16.8639H20H13.8138H11.5916H8.70871H1.32132C0.600601 16.8639 0 17.4645 0 18.1852C0 18.9059 0.600601 19.5065 1.32132 19.5065H8.04805H10.7508H13.7538H19.9399H20C20.7207 19.5065 21.3213 20.1071 21.3213 20.8279C21.3213 21.5486 20.7207 22.1492 20 22.1492H19.9399H13.8138H10.8108H8.10811H1.32132C0.600601 22.1492 0 22.7498 0 23.4705C0 24.1912 0.600601 24.9119 1.32132 24.9119H8.70871H11.5916H20H20.0601C20.7808 24.9119 21.3814 25.5125 21.3814 26.2333C21.3814 26.954 20.7808 27.5546 20.0601 27.5546H20H13.8138H13.5135H10.0901H3.66366C2.94294 27.5546 2.34234 28.1552 2.34234 28.8759C2.34234 29.5966 2.94294 30.1972 3.66366 30.1972H12.4925H20Z" fill="#4F70E6"/>
</g>
<defs>
<clipPath id="clip0_10420_37">
<rect width="40" height="40" fill="white" transform="translate(0 0.887695)"/>
</clipPath>
</defs>
</svg>
